<mxfile host="65bd71144e">
    <diagram id="35_GqeY-hcS4UMfaOFEf" name="Reto">
        <mxGraphModel dx="1247" dy="587" grid="0" gridSize="10" guides="1" tooltips="1" connect="1" arrows="1" fold="1" page="1" pageScale="1" pageWidth="827" pageHeight="1169" background="#F1FAEE" math="0" shadow="0">
            <root>
                <mxCell id="0"/>
                <mxCell id="1" parent="0"/>
                <mxCell id="2" value="&lt;b style=&quot;font-size: 22px;&quot;&gt;PRUEBA DESARROLLADOR JAVA&lt;/b&gt;" style="text;html=1;strokeColor=none;fillColor=none;align=center;verticalAlign=middle;whiteSpace=wrap;rounded=0;fontColor=#1D3557;fontSize=22;" parent="1" vertex="1">
                    <mxGeometry x="256" y="60" width="386" height="10" as="geometry"/>
                </mxCell>
                <mxCell id="4" value="&lt;h1 style=&quot;font-size: 24px&quot;&gt;&lt;font style=&quot;font-size: 24px&quot;&gt;Modelo de negocio&lt;/font&gt;&lt;/h1&gt;&lt;p style=&quot;font-size: 18px&quot;&gt;La empresa Nexos Software requiere desarrollar un sistema de inventarios para el sector automotriz, donde se controle la mercancia que ingresa y la mercancia que sale. El sistema debe permitir registrar una nueva &lt;b&gt;mercancia&lt;/b&gt;, &lt;b&gt;editar&lt;/b&gt; y &lt;b&gt;eliminar&lt;/b&gt;.&lt;/p&gt;" style="text;html=1;strokeColor=none;fillColor=none;spacing=5;spacingTop=-20;whiteSpace=wrap;overflow=hidden;rounded=0;sketch=0;fontSize=16;fontColor=#1D3557;" parent="1" vertex="1">
                    <mxGeometry x="40" y="80" width="760" height="125" as="geometry"/>
                </mxCell>
                <mxCell id="6" value="&lt;h1&gt;&lt;font style=&quot;font-size: 22px&quot;&gt;Registro de mercancia:&lt;/font&gt;&lt;/h1&gt;&lt;div&gt;&lt;font style=&quot;font-size: 18px&quot;&gt;&lt;b&gt;Requerimientos&lt;/b&gt;&lt;/font&gt;&lt;/div&gt;&lt;ul&gt;&lt;li&gt;&lt;b&gt;Nombre producto&lt;/b&gt;&lt;br&gt;&lt;/li&gt;&lt;li&gt;&lt;b&gt;Cantidad&lt;/b&gt;&lt;/li&gt;&lt;li&gt;&lt;b&gt;Fecha de ingreso&lt;/b&gt;&lt;/li&gt;&lt;li&gt;&lt;b&gt;Usuario que realiza registro&lt;/b&gt;&lt;/li&gt;&lt;/ul&gt;&lt;p&gt;&lt;/p&gt;" style="text;html=1;strokeColor=none;fillColor=none;spacing=5;spacingTop=-20;whiteSpace=wrap;overflow=hidden;rounded=0;sketch=0;fontSize=16;fontColor=#1D3557;" parent="1" vertex="1">
                    <mxGeometry x="40" y="211" width="317" height="276" as="geometry"/>
                </mxCell>
                <mxCell id="7" value="&lt;h1&gt;&lt;b style=&quot;font-size: 18px&quot;&gt;Restricciones&lt;/b&gt;&lt;br&gt;&lt;/h1&gt;&lt;ul&gt;&lt;li&gt;&lt;b style=&quot;background-color: rgb(255 , 255 , 51)&quot;&gt;No puede haber mas de una mercancia con el mismo nombre&lt;/b&gt;&lt;/li&gt;&lt;li&gt;&lt;b&gt;La cantidad debe ser un nÃºmeor entero&lt;/b&gt;&lt;/li&gt;&lt;li&gt;&lt;b style=&quot;background-color: rgb(255 , 255 , 0)&quot;&gt;La fecha de ingreso debe ser menor o igual a la fecha actual.&lt;/b&gt;&lt;/li&gt;&lt;li&gt;&lt;b&gt;Para elimiar mercancia, solo lo puede hacer el usuario que la registro.&lt;/b&gt;&lt;/li&gt;&lt;/ul&gt;&lt;p&gt;&lt;/p&gt;" style="text;html=1;strokeColor=none;fillColor=none;spacing=5;spacingTop=-20;whiteSpace=wrap;overflow=hidden;rounded=0;sketch=0;fontSize=16;fontColor=#1D3557;" parent="1" vertex="1">
                    <mxGeometry x="321" y="253" width="368" height="243" as="geometry"/>
                </mxCell>
                <mxCell id="8" value="Nota: Para editar la mercancia, se deben tomar en cuenta las mismas condiciones" style="text;html=1;strokeColor=none;fillColor=none;align=center;verticalAlign=middle;whiteSpace=wrap;rounded=0;sketch=0;fontSize=17;fontStyle=1;fontColor=#CC6600;" parent="1" vertex="1">
                    <mxGeometry x="54" y="506" width="684" height="20" as="geometry"/>
                </mxCell>
                <mxCell id="10" value="&lt;h1 style=&quot;font-size: 21px&quot;&gt;&lt;font style=&quot;font-size: 21px&quot;&gt;Product Backlog&lt;/font&gt;&lt;/h1&gt;&lt;div style=&quot;font-size: 19px&quot;&gt;&lt;ul&gt;&lt;li&gt;&lt;font style=&quot;font-size: 19px&quot;&gt;Registrar producto&lt;/font&gt;&lt;/li&gt;&lt;li&gt;&lt;font style=&quot;font-size: 19px&quot;&gt;Mostra mercancia registrada&lt;/font&gt;&lt;/li&gt;&lt;li&gt;&lt;font style=&quot;font-size: 19px&quot;&gt;Editar producto&lt;/font&gt;&lt;/li&gt;&lt;li&gt;&lt;font style=&quot;font-size: 19px&quot;&gt;Eliminar mercancia&lt;/font&gt;&lt;/li&gt;&lt;/ul&gt;&lt;/div&gt;" style="text;html=1;strokeColor=none;fillColor=none;spacing=5;spacingTop=-20;whiteSpace=wrap;overflow=hidden;rounded=0;sketch=0;fontSize=21;fontColor=#000000;" parent="1" vertex="1">
                    <mxGeometry x="66" y="578" width="294" height="197" as="geometry"/>
                </mxCell>
                <mxCell id="80CbuJvlm-rn-mdEoXSo-10" value="&lt;h1 style=&quot;font-size: 21px&quot;&gt;Entidades&lt;/h1&gt;&lt;div&gt;&lt;ul&gt;&lt;li&gt;Mercancia&lt;/li&gt;&lt;li&gt;Producto&lt;/li&gt;&lt;li&gt;Usuarios&lt;/li&gt;&lt;/ul&gt;&lt;/div&gt;" style="text;html=1;strokeColor=none;fillColor=none;spacing=5;spacingTop=-20;whiteSpace=wrap;overflow=hidden;rounded=0;sketch=0;fontSize=21;fontColor=#000000;" parent="1" vertex="1">
                    <mxGeometry x="425" y="578" width="294" height="197" as="geometry"/>
                </mxCell>
            </root>
        </mxGraphModel>
    </diagram>
    <diagram id="Z2cMeqLKKhU5jT5dUylI" name="Mokups">
        <mxGraphModel dx="1060" dy="479" grid="0" gridSize="10" guides="1" tooltips="1" connect="1" arrows="1" fold="1" page="1" pageScale="1" pageWidth="827" pageHeight="1169" math="0" shadow="0">
            <root>
                <mxCell id="kp_I51TYkRLFt57Wf-5Y-0"/>
                <mxCell id="kp_I51TYkRLFt57Wf-5Y-1" parent="kp_I51TYkRLFt57Wf-5Y-0"/>
                <mxCell id="W-PX67Ha8uIDSohDjEi4-0" value="" style="strokeWidth=1;shadow=0;dashed=0;align=center;html=1;shape=mxgraph.mockup.containers.browserWindow;rSize=0;strokeColor2=#008cff;strokeColor3=#c4c4c4;mainText=,;recursiveResize=0;rounded=0;sketch=0;" parent="kp_I51TYkRLFt57Wf-5Y-1" vertex="1">
                    <mxGeometry x="59" y="30" width="701" height="471" as="geometry"/>
                </mxCell>
                <mxCell id="W-PX67Ha8uIDSohDjEi4-1" value="Page 1" style="strokeWidth=1;shadow=0;dashed=0;align=center;html=1;shape=mxgraph.mockup.containers.anchor;fontSize=17;align=left;" parent="W-PX67Ha8uIDSohDjEi4-0" vertex="1">
                    <mxGeometry x="60" y="12" width="110" height="26" as="geometry"/>
                </mxCell>
                <mxCell id="W-PX67Ha8uIDSohDjEi4-2" value="https://www.draw.io" style="strokeWidth=1;shadow=0;dashed=0;align=center;html=1;shape=mxgraph.mockup.containers.anchor;rSize=0;fontSize=17;align=left;" parent="W-PX67Ha8uIDSohDjEi4-0" vertex="1">
                    <mxGeometry x="130" y="60" width="250" height="26" as="geometry"/>
                </mxCell>
                <mxCell id="W-PX67Ha8uIDSohDjEi4-3" value="" style="strokeWidth=1;shadow=0;dashed=0;align=center;html=1;shape=mxgraph.mockup.containers.browserWindow;rSize=0;strokeColor2=#008cff;strokeColor3=#c4c4c4;mainText=,;recursiveResize=0;rounded=0;sketch=0;" parent="kp_I51TYkRLFt57Wf-5Y-1" vertex="1">
                    <mxGeometry x="59" y="563" width="701" height="471" as="geometry"/>
                </mxCell>
                <mxCell id="W-PX67Ha8uIDSohDjEi4-4" value="Page 1" style="strokeWidth=1;shadow=0;dashed=0;align=center;html=1;shape=mxgraph.mockup.containers.anchor;fontSize=17;align=left;" parent="W-PX67Ha8uIDSohDjEi4-3" vertex="1">
                    <mxGeometry x="60" y="12" width="110" height="26" as="geometry"/>
                </mxCell>
                <mxCell id="W-PX67Ha8uIDSohDjEi4-5" value="https://www.draw.io" style="strokeWidth=1;shadow=0;dashed=0;align=center;html=1;shape=mxgraph.mockup.containers.anchor;rSize=0;fontSize=17;align=left;" parent="W-PX67Ha8uIDSohDjEi4-3" vertex="1">
                    <mxGeometry x="130" y="60" width="250" height="26" as="geometry"/>
                </mxCell>
                <mxCell id="W-PX67Ha8uIDSohDjEi4-6" value="" style="strokeWidth=1;shadow=0;dashed=0;align=center;html=1;shape=mxgraph.mockup.containers.browserWindow;rSize=0;strokeColor2=#008cff;strokeColor3=#c4c4c4;mainText=,;recursiveResize=0;rounded=0;sketch=0;" parent="kp_I51TYkRLFt57Wf-5Y-1" vertex="1">
                    <mxGeometry x="890" y="35" width="701" height="471" as="geometry"/>
                </mxCell>
                <mxCell id="W-PX67Ha8uIDSohDjEi4-7" value="Page 1" style="strokeWidth=1;shadow=0;dashed=0;align=center;html=1;shape=mxgraph.mockup.containers.anchor;fontSize=17;align=left;" parent="W-PX67Ha8uIDSohDjEi4-6" vertex="1">
                    <mxGeometry x="60" y="12" width="110" height="26" as="geometry"/>
                </mxCell>
                <mxCell id="W-PX67Ha8uIDSohDjEi4-8" value="https://www.draw.io" style="strokeWidth=1;shadow=0;dashed=0;align=center;html=1;shape=mxgraph.mockup.containers.anchor;rSize=0;fontSize=17;align=left;" parent="W-PX67Ha8uIDSohDjEi4-6" vertex="1">
                    <mxGeometry x="130" y="60" width="250" height="26" as="geometry"/>
                </mxCell>
                <mxCell id="W-PX67Ha8uIDSohDjEi4-9" value="" style="strokeWidth=1;shadow=0;dashed=0;align=center;html=1;shape=mxgraph.mockup.containers.browserWindow;rSize=0;strokeColor2=#008cff;strokeColor3=#c4c4c4;mainText=,;recursiveResize=0;rounded=0;sketch=0;" parent="kp_I51TYkRLFt57Wf-5Y-1" vertex="1">
                    <mxGeometry x="893" y="568" width="701" height="471" as="geometry"/>
                </mxCell>
                <mxCell id="W-PX67Ha8uIDSohDjEi4-10" value="Page 1" style="strokeWidth=1;shadow=0;dashed=0;align=center;html=1;shape=mxgraph.mockup.containers.anchor;fontSize=17;align=left;" parent="W-PX67Ha8uIDSohDjEi4-9" vertex="1">
                    <mxGeometry x="60" y="12" width="110" height="26" as="geometry"/>
                </mxCell>
                <mxCell id="W-PX67Ha8uIDSohDjEi4-11" value="https://www.draw.io" style="strokeWidth=1;shadow=0;dashed=0;align=center;html=1;shape=mxgraph.mockup.containers.anchor;rSize=0;fontSize=17;align=left;" parent="W-PX67Ha8uIDSohDjEi4-9" vertex="1">
                    <mxGeometry x="130" y="60" width="250" height="26" as="geometry"/>
                </mxCell>
            </root>
        </mxGraphModel>
    </diagram>
    <diagram id="do_1I9bGwJpKFotPgAol" name="Diagrama De Clases">
        <mxGraphModel dx="820" dy="499" grid="0" gridSize="10" guides="1" tooltips="1" connect="1" arrows="1" fold="1" page="1" pageScale="1" pageWidth="827" pageHeight="1169" background="#EEEEEE" math="0" shadow="0">
            <root>
                <mxCell id="lMCMlvRM0i4NGZ_WubSS-0"/>
                <mxCell id="lMCMlvRM0i4NGZ_WubSS-1" parent="lMCMlvRM0i4NGZ_WubSS-0"/>
                <mxCell id="v5DZIVsE6dJ2tptvOozt-21" style="edgeStyle=orthogonalEdgeStyle;curved=0;rounded=1;sketch=0;orthogonalLoop=1;jettySize=auto;html=1;fontColor=#1A1A1A;startArrow=none;startFill=0;endArrow=none;endFill=0;strokeColor=#182E3E;" parent="lMCMlvRM0i4NGZ_WubSS-1" source="zg_BeDo47k0HZeqgUqpH-0" target="v5DZIVsE6dJ2tptvOozt-4" edge="1">
                    <mxGeometry relative="1" as="geometry"/>
                </mxCell>
                <mxCell id="zg_BeDo47k0HZeqgUqpH-0" value="Merchandise" style="swimlane;fontStyle=1;align=center;verticalAlign=top;childLayout=stackLayout;horizontal=1;startSize=26;horizontalStack=0;resizeParent=1;resizeParentMax=0;resizeLast=0;collapsible=1;marginBottom=0;rounded=0;sketch=0;fillColor=#F5AB50;strokeColor=#909090;fontColor=#1A1A1A;" parent="lMCMlvRM0i4NGZ_WubSS-1" vertex="1">
                    <mxGeometry x="195" y="440" width="160" height="190" as="geometry"/>
                </mxCell>
                <mxCell id="zg_BeDo47k0HZeqgUqpH-1" value="- id: Long" style="text;strokeColor=none;fillColor=none;align=left;verticalAlign=top;spacingLeft=4;spacingRight=4;overflow=hidden;rotatable=0;points=[[0,0.5],[1,0.5]];portConstraint=eastwest;fontColor=#1A1A1A;" parent="zg_BeDo47k0HZeqgUqpH-0" vertex="1">
                    <mxGeometry y="26" width="160" height="26" as="geometry"/>
                </mxCell>
                <mxCell id="NB-hk4QdfkGCocH7vL1E-4" value="- product: Product" style="text;strokeColor=none;fillColor=none;align=left;verticalAlign=top;spacingLeft=4;spacingRight=4;overflow=hidden;rotatable=0;points=[[0,0.5],[1,0.5]];portConstraint=eastwest;fontColor=#1A1A1A;" parent="zg_BeDo47k0HZeqgUqpH-0" vertex="1">
                    <mxGeometry y="52" width="160" height="26" as="geometry"/>
                </mxCell>
                <mxCell id="NB-hk4QdfkGCocH7vL1E-0" value="- amount: int" style="text;strokeColor=none;fillColor=none;align=left;verticalAlign=top;spacingLeft=4;spacingRight=4;overflow=hidden;rotatable=0;points=[[0,0.5],[1,0.5]];portConstraint=eastwest;fontColor=#1A1A1A;" parent="zg_BeDo47k0HZeqgUqpH-0" vertex="1">
                    <mxGeometry y="78" width="160" height="26" as="geometry"/>
                </mxCell>
                <mxCell id="NB-hk4QdfkGCocH7vL1E-1" value="- admisionDate: Date" style="text;strokeColor=none;fillColor=none;align=left;verticalAlign=top;spacingLeft=4;spacingRight=4;overflow=hidden;rotatable=0;points=[[0,0.5],[1,0.5]];portConstraint=eastwest;fontColor=#1A1A1A;" parent="zg_BeDo47k0HZeqgUqpH-0" vertex="1">
                    <mxGeometry y="104" width="160" height="26" as="geometry"/>
                </mxCell>
                <mxCell id="NB-hk4QdfkGCocH7vL1E-2" value="- user: User" style="text;strokeColor=none;fillColor=none;align=left;verticalAlign=top;spacingLeft=4;spacingRight=4;overflow=hidden;rotatable=0;points=[[0,0.5],[1,0.5]];portConstraint=eastwest;fontColor=#1A1A1A;" parent="zg_BeDo47k0HZeqgUqpH-0" vertex="1">
                    <mxGeometry y="130" width="160" height="26" as="geometry"/>
                </mxCell>
                <mxCell id="zg_BeDo47k0HZeqgUqpH-2" value="" style="line;strokeWidth=1;fillColor=none;align=left;verticalAlign=middle;spacingTop=-1;spacingLeft=3;spacingRight=3;rotatable=0;labelPosition=right;points=[];portConstraint=eastwest;strokeColor=#909090;fontColor=#1A1A1A;labelBackgroundColor=#EEEEEE;" parent="zg_BeDo47k0HZeqgUqpH-0" vertex="1">
                    <mxGeometry y="156" width="160" height="8" as="geometry"/>
                </mxCell>
                <mxCell id="zg_BeDo47k0HZeqgUqpH-3" value="+ method(type): type" style="text;strokeColor=none;fillColor=none;align=left;verticalAlign=top;spacingLeft=4;spacingRight=4;overflow=hidden;rotatable=0;points=[[0,0.5],[1,0.5]];portConstraint=eastwest;fontColor=#1A1A1A;" parent="zg_BeDo47k0HZeqgUqpH-0" vertex="1">
                    <mxGeometry y="164" width="160" height="26" as="geometry"/>
                </mxCell>
                <mxCell id="v5DZIVsE6dJ2tptvOozt-10" style="edgeStyle=orthogonalEdgeStyle;curved=0;rounded=1;sketch=0;orthogonalLoop=1;jettySize=auto;html=1;fontColor=#1A1A1A;startArrow=none;startFill=0;endArrow=none;endFill=0;strokeColor=#182E3E;" parent="lMCMlvRM0i4NGZ_WubSS-1" source="zg_BeDo47k0HZeqgUqpH-8" target="zg_BeDo47k0HZeqgUqpH-12" edge="1">
                    <mxGeometry relative="1" as="geometry"/>
                </mxCell>
                <mxCell id="v5DZIVsE6dJ2tptvOozt-16" style="edgeStyle=orthogonalEdgeStyle;curved=0;rounded=1;sketch=0;orthogonalLoop=1;jettySize=auto;html=1;fontColor=#1A1A1A;startArrow=none;startFill=0;endArrow=none;endFill=0;strokeColor=#182E3E;" parent="lMCMlvRM0i4NGZ_WubSS-1" source="zg_BeDo47k0HZeqgUqpH-8" target="zg_BeDo47k0HZeqgUqpH-0" edge="1">
                    <mxGeometry relative="1" as="geometry"/>
                </mxCell>
                <mxCell id="zg_BeDo47k0HZeqgUqpH-8" value="User" style="swimlane;fontStyle=1;align=center;verticalAlign=top;childLayout=stackLayout;horizontal=1;startSize=26;horizontalStack=0;resizeParent=1;resizeParentMax=0;resizeLast=0;collapsible=1;marginBottom=0;rounded=0;sketch=0;fillColor=#F5AB50;strokeColor=#909090;fontColor=#1A1A1A;" parent="lMCMlvRM0i4NGZ_WubSS-1" vertex="1">
                    <mxGeometry x="145" y="131" width="210" height="190" as="geometry"/>
                </mxCell>
                <mxCell id="zg_BeDo47k0HZeqgUqpH-9" value="- id: Long" style="text;strokeColor=none;fillColor=none;align=left;verticalAlign=top;spacingLeft=4;spacingRight=4;overflow=hidden;rotatable=0;points=[[0,0.5],[1,0.5]];portConstraint=eastwest;fontColor=#1A1A1A;" parent="zg_BeDo47k0HZeqgUqpH-8" vertex="1">
                    <mxGeometry y="26" width="210" height="26" as="geometry"/>
                </mxCell>
                <mxCell id="NB-hk4QdfkGCocH7vL1E-3" value="- name: StringÂ " style="text;strokeColor=none;fillColor=none;align=left;verticalAlign=top;spacingLeft=4;spacingRight=4;overflow=hidden;rotatable=0;points=[[0,0.5],[1,0.5]];portConstraint=eastwest;fontColor=#1A1A1A;" parent="zg_BeDo47k0HZeqgUqpH-8" vertex="1">
                    <mxGeometry y="52" width="210" height="26" as="geometry"/>
                </mxCell>
                <mxCell id="zg_BeDo47k0HZeqgUqpH-19" value="- age: int&#10;Â " style="text;strokeColor=none;fillColor=none;align=left;verticalAlign=top;spacingLeft=4;spacingRight=4;overflow=hidden;rotatable=0;points=[[0,0.5],[1,0.5]];portConstraint=eastwest;fontColor=#1A1A1A;" parent="zg_BeDo47k0HZeqgUqpH-8" vertex="1">
                    <mxGeometry y="78" width="210" height="26" as="geometry"/>
                </mxCell>
                <mxCell id="zg_BeDo47k0HZeqgUqpH-20" value="- role: Role&#10;Â " style="text;strokeColor=none;fillColor=none;align=left;verticalAlign=top;spacingLeft=4;spacingRight=4;overflow=hidden;rotatable=0;points=[[0,0.5],[1,0.5]];portConstraint=eastwest;fontColor=#1A1A1A;" parent="zg_BeDo47k0HZeqgUqpH-8" vertex="1">
                    <mxGeometry y="104" width="210" height="26" as="geometry"/>
                </mxCell>
                <mxCell id="zg_BeDo47k0HZeqgUqpH-21" value="- entryDateToCompany: Date&#10;Â " style="text;strokeColor=none;fillColor=none;align=left;verticalAlign=top;spacingLeft=4;spacingRight=4;overflow=hidden;rotatable=0;points=[[0,0.5],[1,0.5]];portConstraint=eastwest;fontColor=#1A1A1A;" parent="zg_BeDo47k0HZeqgUqpH-8" vertex="1">
                    <mxGeometry y="130" width="210" height="26" as="geometry"/>
                </mxCell>
                <mxCell id="zg_BeDo47k0HZeqgUqpH-10" value="" style="line;strokeWidth=1;fillColor=none;align=left;verticalAlign=middle;spacingTop=-1;spacingLeft=3;spacingRight=3;rotatable=0;labelPosition=right;points=[];portConstraint=eastwest;strokeColor=#909090;fontColor=#1A1A1A;labelBackgroundColor=#EEEEEE;" parent="zg_BeDo47k0HZeqgUqpH-8" vertex="1">
                    <mxGeometry y="156" width="210" height="8" as="geometry"/>
                </mxCell>
                <mxCell id="zg_BeDo47k0HZeqgUqpH-11" value="+ method(type): type" style="text;strokeColor=none;fillColor=none;align=left;verticalAlign=top;spacingLeft=4;spacingRight=4;overflow=hidden;rotatable=0;points=[[0,0.5],[1,0.5]];portConstraint=eastwest;fontColor=#1A1A1A;" parent="zg_BeDo47k0HZeqgUqpH-8" vertex="1">
                    <mxGeometry y="164" width="210" height="26" as="geometry"/>
                </mxCell>
                <mxCell id="zg_BeDo47k0HZeqgUqpH-12" value="Role" style="swimlane;fontStyle=1;align=center;verticalAlign=top;childLayout=stackLayout;horizontal=1;startSize=26;horizontalStack=0;resizeParent=1;resizeParentMax=0;resizeLast=0;collapsible=1;marginBottom=0;rounded=0;sketch=0;fillColor=#F5AB50;strokeColor=#909090;fontColor=#1A1A1A;" parent="lMCMlvRM0i4NGZ_WubSS-1" vertex="1">
                    <mxGeometry x="560" y="157" width="160" height="138" as="geometry"/>
                </mxCell>
                <mxCell id="zg_BeDo47k0HZeqgUqpH-13" value="- id: Long" style="text;strokeColor=none;fillColor=none;align=left;verticalAlign=top;spacingLeft=4;spacingRight=4;overflow=hidden;rotatable=0;points=[[0,0.5],[1,0.5]];portConstraint=eastwest;fontColor=#1A1A1A;" parent="zg_BeDo47k0HZeqgUqpH-12" vertex="1">
                    <mxGeometry y="26" width="160" height="26" as="geometry"/>
                </mxCell>
                <mxCell id="NB-hk4QdfkGCocH7vL1E-5" value="- name: String" style="text;strokeColor=none;fillColor=none;align=left;verticalAlign=top;spacingLeft=4;spacingRight=4;overflow=hidden;rotatable=0;points=[[0,0.5],[1,0.5]];portConstraint=eastwest;fontColor=#1A1A1A;" parent="zg_BeDo47k0HZeqgUqpH-12" vertex="1">
                    <mxGeometry y="52" width="160" height="26" as="geometry"/>
                </mxCell>
                <mxCell id="NB-hk4QdfkGCocH7vL1E-6" value="- description: String" style="text;strokeColor=none;fillColor=none;align=left;verticalAlign=top;spacingLeft=4;spacingRight=4;overflow=hidden;rotatable=0;points=[[0,0.5],[1,0.5]];portConstraint=eastwest;fontColor=#1A1A1A;" parent="zg_BeDo47k0HZeqgUqpH-12" vertex="1">
                    <mxGeometry y="78" width="160" height="26" as="geometry"/>
                </mxCell>
                <mxCell id="zg_BeDo47k0HZeqgUqpH-14" value="" style="line;strokeWidth=1;fillColor=none;align=left;verticalAlign=middle;spacingTop=-1;spacingLeft=3;spacingRight=3;rotatable=0;labelPosition=right;points=[];portConstraint=eastwest;strokeColor=#909090;fontColor=#1A1A1A;labelBackgroundColor=#EEEEEE;" parent="zg_BeDo47k0HZeqgUqpH-12" vertex="1">
                    <mxGeometry y="104" width="160" height="8" as="geometry"/>
                </mxCell>
                <mxCell id="zg_BeDo47k0HZeqgUqpH-15" value="+ method(type): type" style="text;strokeColor=none;fillColor=none;align=left;verticalAlign=top;spacingLeft=4;spacingRight=4;overflow=hidden;rotatable=0;points=[[0,0.5],[1,0.5]];portConstraint=eastwest;fontColor=#1A1A1A;" parent="zg_BeDo47k0HZeqgUqpH-12" vertex="1">
                    <mxGeometry y="112" width="160" height="26" as="geometry"/>
                </mxCell>
                <mxCell id="v5DZIVsE6dJ2tptvOozt-4" value="PRODUCTO" style="swimlane;fontStyle=1;align=center;verticalAlign=top;childLayout=stackLayout;horizontal=1;startSize=26;horizontalStack=0;resizeParent=1;resizeParentMax=0;resizeLast=0;collapsible=1;marginBottom=0;rounded=0;sketch=0;fillColor=#F5AB50;strokeColor=#909090;fontColor=#1A1A1A;" parent="lMCMlvRM0i4NGZ_WubSS-1" vertex="1">
                    <mxGeometry x="563" y="440" width="160" height="112" as="geometry"/>
                </mxCell>
                <mxCell id="v5DZIVsE6dJ2tptvOozt-5" value="- id: Long" style="text;strokeColor=none;fillColor=none;align=left;verticalAlign=top;spacingLeft=4;spacingRight=4;overflow=hidden;rotatable=0;points=[[0,0.5],[1,0.5]];portConstraint=eastwest;fontColor=#1A1A1A;" parent="v5DZIVsE6dJ2tptvOozt-4" vertex="1">
                    <mxGeometry y="26" width="160" height="26" as="geometry"/>
                </mxCell>
                <mxCell id="v5DZIVsE6dJ2tptvOozt-6" value="- name: String" style="text;strokeColor=none;fillColor=none;align=left;verticalAlign=top;spacingLeft=4;spacingRight=4;overflow=hidden;rotatable=0;points=[[0,0.5],[1,0.5]];portConstraint=eastwest;fontColor=#1A1A1A;" parent="v5DZIVsE6dJ2tptvOozt-4" vertex="1">
                    <mxGeometry y="52" width="160" height="26" as="geometry"/>
                </mxCell>
                <mxCell id="v5DZIVsE6dJ2tptvOozt-8" value="" style="line;strokeWidth=1;fillColor=none;align=left;verticalAlign=middle;spacingTop=-1;spacingLeft=3;spacingRight=3;rotatable=0;labelPosition=right;points=[];portConstraint=eastwest;strokeColor=#909090;fontColor=#1A1A1A;labelBackgroundColor=#EEEEEE;" parent="v5DZIVsE6dJ2tptvOozt-4" vertex="1">
                    <mxGeometry y="78" width="160" height="8" as="geometry"/>
                </mxCell>
                <mxCell id="v5DZIVsE6dJ2tptvOozt-9" value="+ method(type): type" style="text;strokeColor=none;fillColor=none;align=left;verticalAlign=top;spacingLeft=4;spacingRight=4;overflow=hidden;rotatable=0;points=[[0,0.5],[1,0.5]];portConstraint=eastwest;fontColor=#1A1A1A;" parent="v5DZIVsE6dJ2tptvOozt-4" vertex="1">
                    <mxGeometry y="86" width="160" height="26" as="geometry"/>
                </mxCell>
                <mxCell id="v5DZIVsE6dJ2tptvOozt-11" value="tiene" style="text;html=1;align=center;verticalAlign=middle;resizable=0;points=[];autosize=1;strokeColor=none;fontColor=#1A1A1A;" parent="lMCMlvRM0i4NGZ_WubSS-1" vertex="1">
                    <mxGeometry x="361" y="203" width="36" height="18" as="geometry"/>
                </mxCell>
                <mxCell id="v5DZIVsE6dJ2tptvOozt-12" value="1...*" style="text;html=1;align=center;verticalAlign=middle;resizable=0;points=[];autosize=1;strokeColor=none;fontColor=#1A1A1A;" parent="lMCMlvRM0i4NGZ_WubSS-1" vertex="1">
                    <mxGeometry x="364" y="229" width="31" height="18" as="geometry"/>
                </mxCell>
                <mxCell id="v5DZIVsE6dJ2tptvOozt-13" value="pertenece" style="text;html=1;align=center;verticalAlign=middle;resizable=0;points=[];autosize=1;strokeColor=none;fontColor=#1A1A1A;" parent="lMCMlvRM0i4NGZ_WubSS-1" vertex="1">
                    <mxGeometry x="497" y="203" width="63" height="18" as="geometry"/>
                </mxCell>
                <mxCell id="v5DZIVsE6dJ2tptvOozt-14" value="1...1" style="text;html=1;align=center;verticalAlign=middle;resizable=0;points=[];autosize=1;strokeColor=none;fontColor=#1A1A1A;" parent="lMCMlvRM0i4NGZ_WubSS-1" vertex="1">
                    <mxGeometry x="521" y="229" width="33" height="18" as="geometry"/>
                </mxCell>
                <mxCell id="v5DZIVsE6dJ2tptvOozt-17" value="realiza acciones" style="text;html=1;align=center;verticalAlign=middle;resizable=0;points=[];autosize=1;strokeColor=none;fontColor=#1A1A1A;" parent="lMCMlvRM0i4NGZ_WubSS-1" vertex="1">
                    <mxGeometry x="148" y="327" width="96" height="18" as="geometry"/>
                </mxCell>
                <mxCell id="v5DZIVsE6dJ2tptvOozt-18" value="1...*" style="text;html=1;align=center;verticalAlign=middle;resizable=0;points=[];autosize=1;strokeColor=none;fontColor=#1A1A1A;" parent="lMCMlvRM0i4NGZ_WubSS-1" vertex="1">
                    <mxGeometry x="254" y="327" width="31" height="18" as="geometry"/>
                </mxCell>
                <mxCell id="v5DZIVsE6dJ2tptvOozt-19" value="Es gestionada" style="text;html=1;align=center;verticalAlign=middle;resizable=0;points=[];autosize=1;strokeColor=none;fontColor=#1A1A1A;" parent="lMCMlvRM0i4NGZ_WubSS-1" vertex="1">
                    <mxGeometry x="182" y="414" width="86" height="18" as="geometry"/>
                </mxCell>
                <mxCell id="v5DZIVsE6dJ2tptvOozt-20" value="1...1" style="text;html=1;align=center;verticalAlign=middle;resizable=0;points=[];autosize=1;strokeColor=none;fontColor=#1A1A1A;" parent="lMCMlvRM0i4NGZ_WubSS-1" vertex="1">
                    <mxGeometry x="281" y="413" width="33" height="18" as="geometry"/>
                </mxCell>
                <mxCell id="v5DZIVsE6dJ2tptvOozt-22" value="Contiene" style="text;html=1;align=center;verticalAlign=middle;resizable=0;points=[];autosize=1;strokeColor=none;fontColor=#1A1A1A;" parent="lMCMlvRM0i4NGZ_WubSS-1" vertex="1">
                    <mxGeometry x="358" y="511" width="58" height="18" as="geometry"/>
                </mxCell>
                <mxCell id="v5DZIVsE6dJ2tptvOozt-24" value="1...1" style="text;html=1;align=center;verticalAlign=middle;resizable=0;points=[];autosize=1;strokeColor=none;fontColor=#1A1A1A;" parent="lMCMlvRM0i4NGZ_WubSS-1" vertex="1">
                    <mxGeometry x="358" y="541" width="33" height="18" as="geometry"/>
                </mxCell>
                <mxCell id="v5DZIVsE6dJ2tptvOozt-25" value="pertenece" style="text;html=1;align=center;verticalAlign=middle;resizable=0;points=[];autosize=1;strokeColor=none;fontColor=#1A1A1A;" parent="lMCMlvRM0i4NGZ_WubSS-1" vertex="1">
                    <mxGeometry x="497" y="472" width="63" height="18" as="geometry"/>
                </mxCell>
                <mxCell id="v5DZIVsE6dJ2tptvOozt-28" value="1...1" style="text;html=1;align=center;verticalAlign=middle;resizable=0;points=[];autosize=1;strokeColor=none;fontColor=#1A1A1A;" parent="lMCMlvRM0i4NGZ_WubSS-1" vertex="1">
                    <mxGeometry x="521.5" y="505" width="33" height="18" as="geometry"/>
                </mxCell>
            </root>
        </mxGraphModel>
    </diagram>
    <diagram id="u_uJjcJ66nfPgIXtvA97" name="EntidadRelacion">
        <mxGraphModel dx="1496" dy="587" grid="0" gridSize="10" guides="1" tooltips="1" connect="1" arrows="1" fold="1" page="1" pageScale="1" pageWidth="827" pageHeight="1169" background="#EEEEEE" math="0" shadow="0">
            <root>
                <mxCell id="DoQpAC8117qhnvemwFj_-0"/>
                <mxCell id="DoQpAC8117qhnvemwFj_-1" parent="DoQpAC8117qhnvemwFj_-0"/>
                <mxCell id="YnPcKXAepAWKPNKwZ6Nb-0" value="USER" style="shape=table;startSize=30;container=1;collapsible=1;childLayout=tableLayout;fixedRows=1;rowLines=0;fontStyle=1;align=center;resizeLast=1;rounded=0;sketch=0;fontColor=#1A1A1A;strokeColor=#909090;fillColor=#F5AB50;" parent="DoQpAC8117qhnvemwFj_-1" vertex="1">
                    <mxGeometry x="59" y="103" width="277" height="160" as="geometry"/>
                </mxCell>
                <mxCell id="YnPcKXAepAWKPNKwZ6Nb-1" value="" style="shape=partialRectangle;collapsible=0;dropTarget=0;pointerEvents=0;fillColor=none;top=0;left=0;bottom=1;right=0;points=[[0,0.5],[1,0.5]];portConstraint=eastwest;strokeColor=#909090;fontColor=#1A1A1A;" parent="YnPcKXAepAWKPNKwZ6Nb-0" vertex="1">
                    <mxGeometry y="30" width="277" height="30" as="geometry"/>
                </mxCell>
                <mxCell id="YnPcKXAepAWKPNKwZ6Nb-2" value="PK" style="shape=partialRectangle;connectable=0;fillColor=none;top=0;left=0;bottom=0;right=0;fontStyle=1;overflow=hidden;strokeColor=#909090;fontColor=#1A1A1A;" parent="YnPcKXAepAWKPNKwZ6Nb-1" vertex="1">
                    <mxGeometry width="30" height="30" as="geometry"/>
                </mxCell>
                <mxCell id="YnPcKXAepAWKPNKwZ6Nb-3" value="user_id int NOT NULL" style="shape=partialRectangle;connectable=0;fillColor=none;top=0;left=0;bottom=0;right=0;align=left;spacingLeft=6;fontStyle=5;overflow=hidden;strokeColor=#909090;fontColor=#1A1A1A;" parent="YnPcKXAepAWKPNKwZ6Nb-1" vertex="1">
                    <mxGeometry x="30" width="247" height="30" as="geometry"/>
                </mxCell>
                <mxCell id="YnPcKXAepAWKPNKwZ6Nb-4" value="" style="shape=partialRectangle;collapsible=0;dropTarget=0;pointerEvents=0;fillColor=none;top=0;left=0;bottom=0;right=0;points=[[0,0.5],[1,0.5]];portConstraint=eastwest;strokeColor=#909090;fontColor=#1A1A1A;" parent="YnPcKXAepAWKPNKwZ6Nb-0" vertex="1">
                    <mxGeometry y="60" width="277" height="30" as="geometry"/>
                </mxCell>
                <mxCell id="YnPcKXAepAWKPNKwZ6Nb-5" value="" style="shape=partialRectangle;connectable=0;fillColor=none;top=0;left=0;bottom=0;right=0;editable=1;overflow=hidden;strokeColor=#909090;fontColor=#1A1A1A;" parent="YnPcKXAepAWKPNKwZ6Nb-4" vertex="1">
                    <mxGeometry width="30" height="30" as="geometry"/>
                </mxCell>
                <mxCell id="YnPcKXAepAWKPNKwZ6Nb-6" value="nameÂ  varchar(200) NOT NULL" style="shape=partialRectangle;connectable=0;fillColor=none;top=0;left=0;bottom=0;right=0;align=left;spacingLeft=6;overflow=hidden;strokeColor=#909090;fontColor=#1A1A1A;" parent="YnPcKXAepAWKPNKwZ6Nb-4" vertex="1">
                    <mxGeometry x="30" width="247" height="30" as="geometry"/>
                </mxCell>
                <mxCell id="YnPcKXAepAWKPNKwZ6Nb-7" value="" style="shape=partialRectangle;collapsible=0;dropTarget=0;pointerEvents=0;fillColor=none;top=0;left=0;bottom=0;right=0;points=[[0,0.5],[1,0.5]];portConstraint=eastwest;strokeColor=#909090;fontColor=#1A1A1A;" parent="YnPcKXAepAWKPNKwZ6Nb-0" vertex="1">
                    <mxGeometry y="90" width="277" height="30" as="geometry"/>
                </mxCell>
                <mxCell id="YnPcKXAepAWKPNKwZ6Nb-8" value="" style="shape=partialRectangle;connectable=0;fillColor=none;top=0;left=0;bottom=0;right=0;editable=1;overflow=hidden;strokeColor=#909090;fontColor=#1A1A1A;" parent="YnPcKXAepAWKPNKwZ6Nb-7" vertex="1">
                    <mxGeometry width="30" height="30" as="geometry"/>
                </mxCell>
                <mxCell id="YnPcKXAepAWKPNKwZ6Nb-9" value="age: intÂ " style="shape=partialRectangle;connectable=0;fillColor=none;top=0;left=0;bottom=0;right=0;align=left;spacingLeft=6;overflow=hidden;strokeColor=#909090;fontColor=#1A1A1A;" parent="YnPcKXAepAWKPNKwZ6Nb-7" vertex="1">
                    <mxGeometry x="30" width="247" height="30" as="geometry"/>
                </mxCell>
                <mxCell id="YnPcKXAepAWKPNKwZ6Nb-10" value="" style="shape=partialRectangle;collapsible=0;dropTarget=0;pointerEvents=0;fillColor=none;top=0;left=0;bottom=0;right=0;points=[[0,0.5],[1,0.5]];portConstraint=eastwest;strokeColor=#909090;fontColor=#1A1A1A;" parent="YnPcKXAepAWKPNKwZ6Nb-0" vertex="1">
                    <mxGeometry y="120" width="277" height="30" as="geometry"/>
                </mxCell>
                <mxCell id="YnPcKXAepAWKPNKwZ6Nb-11" value="" style="shape=partialRectangle;connectable=0;fillColor=none;top=0;left=0;bottom=0;right=0;editable=1;overflow=hidden;strokeColor=#909090;fontColor=#1A1A1A;" parent="YnPcKXAepAWKPNKwZ6Nb-10" vertex="1">
                    <mxGeometry width="30" height="30" as="geometry"/>
                </mxCell>
                <mxCell id="YnPcKXAepAWKPNKwZ6Nb-12" value="admision_date_to_company DATETIME" style="shape=partialRectangle;connectable=0;fillColor=none;top=0;left=0;bottom=0;right=0;align=left;spacingLeft=6;overflow=hidden;strokeColor=#909090;fontColor=#1A1A1A;" parent="YnPcKXAepAWKPNKwZ6Nb-10" vertex="1">
                    <mxGeometry x="30" width="247" height="30" as="geometry"/>
                </mxCell>
                <mxCell id="7tXAYhkLXPC1tsu9IPgw-13" style="edgeStyle=orthogonalEdgeStyle;curved=0;rounded=1;sketch=0;orthogonalLoop=1;jettySize=auto;html=1;entryX=0;entryY=0.5;entryDx=0;entryDy=0;fontColor=#1A1A1A;startArrow=ERmandOne;startFill=0;endArrow=ERmandOne;endFill=0;strokeColor=#182E3E;exitX=1;exitY=0.5;exitDx=0;exitDy=0;" parent="DoQpAC8117qhnvemwFj_-1" source="YnPcKXAepAWKPNKwZ6Nb-17" target="7tXAYhkLXPC1tsu9IPgw-1" edge="1">
                    <mxGeometry relative="1" as="geometry"/>
                </mxCell>
                <mxCell id="YnPcKXAepAWKPNKwZ6Nb-13" value="MERCHANDISE" style="shape=table;startSize=30;container=1;collapsible=1;childLayout=tableLayout;fixedRows=1;rowLines=0;fontStyle=1;align=center;resizeLast=1;rounded=0;sketch=0;fontColor=#1A1A1A;strokeColor=#909090;fillColor=#F5AB50;" parent="DoQpAC8117qhnvemwFj_-1" vertex="1">
                    <mxGeometry x="467" y="303" width="248" height="190" as="geometry"/>
                </mxCell>
                <mxCell id="YnPcKXAepAWKPNKwZ6Nb-14" value="" style="shape=partialRectangle;collapsible=0;dropTarget=0;pointerEvents=0;fillColor=none;top=0;left=0;bottom=1;right=0;points=[[0,0.5],[1,0.5]];portConstraint=eastwest;strokeColor=#909090;fontColor=#1A1A1A;" parent="YnPcKXAepAWKPNKwZ6Nb-13" vertex="1">
                    <mxGeometry y="30" width="248" height="30" as="geometry"/>
                </mxCell>
                <mxCell id="YnPcKXAepAWKPNKwZ6Nb-15" value="PK" style="shape=partialRectangle;connectable=0;fillColor=none;top=0;left=0;bottom=0;right=0;fontStyle=1;overflow=hidden;strokeColor=#909090;fontColor=#1A1A1A;" parent="YnPcKXAepAWKPNKwZ6Nb-14" vertex="1">
                    <mxGeometry width="30" height="30" as="geometry"/>
                </mxCell>
                <mxCell id="YnPcKXAepAWKPNKwZ6Nb-16" value="mer_id" style="shape=partialRectangle;connectable=0;fillColor=none;top=0;left=0;bottom=0;right=0;align=left;spacingLeft=6;fontStyle=5;overflow=hidden;strokeColor=#909090;fontColor=#1A1A1A;" parent="YnPcKXAepAWKPNKwZ6Nb-14" vertex="1">
                    <mxGeometry x="30" width="218" height="30" as="geometry"/>
                </mxCell>
                <mxCell id="YnPcKXAepAWKPNKwZ6Nb-17" value="" style="shape=partialRectangle;collapsible=0;dropTarget=0;pointerEvents=0;fillColor=none;top=0;left=0;bottom=0;right=0;points=[[0,0.5],[1,0.5]];portConstraint=eastwest;strokeColor=#909090;fontColor=#1A1A1A;" parent="YnPcKXAepAWKPNKwZ6Nb-13" vertex="1">
                    <mxGeometry y="60" width="248" height="30" as="geometry"/>
                </mxCell>
                <mxCell id="YnPcKXAepAWKPNKwZ6Nb-18" value="FK" style="shape=partialRectangle;connectable=0;fillColor=none;top=0;left=0;bottom=0;right=0;editable=1;overflow=hidden;strokeColor=#909090;fontColor=#1A1A1A;" parent="YnPcKXAepAWKPNKwZ6Nb-17" vertex="1">
                    <mxGeometry width="30" height="30" as="geometry"/>
                </mxCell>
                <mxCell id="YnPcKXAepAWKPNKwZ6Nb-19" value="product_id int NOT NULL" style="shape=partialRectangle;connectable=0;fillColor=none;top=0;left=0;bottom=0;right=0;align=left;spacingLeft=6;overflow=hidden;strokeColor=#909090;fontColor=#1A1A1A;" parent="YnPcKXAepAWKPNKwZ6Nb-17" vertex="1">
                    <mxGeometry x="30" width="218" height="30" as="geometry"/>
                </mxCell>
                <mxCell id="YnPcKXAepAWKPNKwZ6Nb-20" value="" style="shape=partialRectangle;collapsible=0;dropTarget=0;pointerEvents=0;fillColor=none;top=0;left=0;bottom=0;right=0;points=[[0,0.5],[1,0.5]];portConstraint=eastwest;strokeColor=#909090;fontColor=#1A1A1A;" parent="YnPcKXAepAWKPNKwZ6Nb-13" vertex="1">
                    <mxGeometry y="90" width="248" height="30" as="geometry"/>
                </mxCell>
                <mxCell id="YnPcKXAepAWKPNKwZ6Nb-21" value="" style="shape=partialRectangle;connectable=0;fillColor=none;top=0;left=0;bottom=0;right=0;editable=1;overflow=hidden;strokeColor=#909090;fontColor=#1A1A1A;" parent="YnPcKXAepAWKPNKwZ6Nb-20" vertex="1">
                    <mxGeometry width="30" height="30" as="geometry"/>
                </mxCell>
                <mxCell id="YnPcKXAepAWKPNKwZ6Nb-22" value="amoun int NOT NULL" style="shape=partialRectangle;connectable=0;fillColor=none;top=0;left=0;bottom=0;right=0;align=left;spacingLeft=6;overflow=hidden;strokeColor=#909090;fontColor=#1A1A1A;" parent="YnPcKXAepAWKPNKwZ6Nb-20" vertex="1">
                    <mxGeometry x="30" width="218" height="30" as="geometry"/>
                </mxCell>
                <mxCell id="YnPcKXAepAWKPNKwZ6Nb-23" value="" style="shape=partialRectangle;collapsible=0;dropTarget=0;pointerEvents=0;fillColor=none;top=0;left=0;bottom=0;right=0;points=[[0,0.5],[1,0.5]];portConstraint=eastwest;strokeColor=#909090;fontColor=#1A1A1A;" parent="YnPcKXAepAWKPNKwZ6Nb-13" vertex="1">
                    <mxGeometry y="120" width="248" height="30" as="geometry"/>
                </mxCell>
                <mxCell id="YnPcKXAepAWKPNKwZ6Nb-24" value="" style="shape=partialRectangle;connectable=0;fillColor=none;top=0;left=0;bottom=0;right=0;editable=1;overflow=hidden;strokeColor=#909090;fontColor=#1A1A1A;" parent="YnPcKXAepAWKPNKwZ6Nb-23" vertex="1">
                    <mxGeometry width="30" height="30" as="geometry"/>
                </mxCell>
                <mxCell id="YnPcKXAepAWKPNKwZ6Nb-25" value="admision_date DATETIME" style="shape=partialRectangle;connectable=0;fillColor=none;top=0;left=0;bottom=0;right=0;align=left;spacingLeft=6;overflow=hidden;strokeColor=#909090;fontColor=#1A1A1A;" parent="YnPcKXAepAWKPNKwZ6Nb-23" vertex="1">
                    <mxGeometry x="30" width="218" height="30" as="geometry"/>
                </mxCell>
                <mxCell id="LIHsp0ykM9RelIvVSaIk-2" value="" style="shape=partialRectangle;collapsible=0;dropTarget=0;pointerEvents=0;fillColor=none;top=0;left=0;bottom=0;right=0;points=[[0,0.5],[1,0.5]];portConstraint=eastwest;strokeColor=#909090;fontColor=#1A1A1A;" parent="YnPcKXAepAWKPNKwZ6Nb-13" vertex="1">
                    <mxGeometry y="150" width="248" height="30" as="geometry"/>
                </mxCell>
                <mxCell id="LIHsp0ykM9RelIvVSaIk-3" value="FK" style="shape=partialRectangle;connectable=0;fillColor=none;top=0;left=0;bottom=0;right=0;editable=1;overflow=hidden;strokeColor=#909090;fontColor=#1A1A1A;" parent="LIHsp0ykM9RelIvVSaIk-2" vertex="1">
                    <mxGeometry width="30" height="30" as="geometry"/>
                </mxCell>
                <mxCell id="LIHsp0ykM9RelIvVSaIk-4" value="user_id int NOT NULL" style="shape=partialRectangle;connectable=0;fillColor=none;top=0;left=0;bottom=0;right=0;align=left;spacingLeft=6;overflow=hidden;strokeColor=#909090;fontColor=#1A1A1A;" parent="LIHsp0ykM9RelIvVSaIk-2" vertex="1">
                    <mxGeometry x="30" width="218" height="30" as="geometry"/>
                </mxCell>
                <mxCell id="vL0QQgbBQVafetT-SU3f-0" value="ROLE" style="shape=table;startSize=30;container=1;collapsible=1;childLayout=tableLayout;fixedRows=1;rowLines=0;fontStyle=1;align=center;resizeLast=1;rounded=0;sketch=0;fontColor=#1A1A1A;strokeColor=#909090;fillColor=#F5AB50;" parent="DoQpAC8117qhnvemwFj_-1" vertex="1">
                    <mxGeometry x="769" y="103" width="256" height="130" as="geometry"/>
                </mxCell>
                <mxCell id="vL0QQgbBQVafetT-SU3f-1" value="" style="shape=partialRectangle;collapsible=0;dropTarget=0;pointerEvents=0;fillColor=none;top=0;left=0;bottom=1;right=0;points=[[0,0.5],[1,0.5]];portConstraint=eastwest;strokeColor=#909090;fontColor=#1A1A1A;" parent="vL0QQgbBQVafetT-SU3f-0" vertex="1">
                    <mxGeometry y="30" width="256" height="30" as="geometry"/>
                </mxCell>
                <mxCell id="vL0QQgbBQVafetT-SU3f-2" value="PK" style="shape=partialRectangle;connectable=0;fillColor=none;top=0;left=0;bottom=0;right=0;fontStyle=1;overflow=hidden;strokeColor=#909090;fontColor=#1A1A1A;" parent="vL0QQgbBQVafetT-SU3f-1" vertex="1">
                    <mxGeometry width="30" height="30" as="geometry"/>
                </mxCell>
                <mxCell id="vL0QQgbBQVafetT-SU3f-3" value="role_id int NOT NULL" style="shape=partialRectangle;connectable=0;fillColor=none;top=0;left=0;bottom=0;right=0;align=left;spacingLeft=6;fontStyle=5;overflow=hidden;strokeColor=#909090;fontColor=#1A1A1A;" parent="vL0QQgbBQVafetT-SU3f-1" vertex="1">
                    <mxGeometry x="30" width="226" height="30" as="geometry"/>
                </mxCell>
                <mxCell id="vL0QQgbBQVafetT-SU3f-4" value="" style="shape=partialRectangle;collapsible=0;dropTarget=0;pointerEvents=0;fillColor=none;top=0;left=0;bottom=0;right=0;points=[[0,0.5],[1,0.5]];portConstraint=eastwest;strokeColor=#909090;fontColor=#1A1A1A;" parent="vL0QQgbBQVafetT-SU3f-0" vertex="1">
                    <mxGeometry y="60" width="256" height="30" as="geometry"/>
                </mxCell>
                <mxCell id="vL0QQgbBQVafetT-SU3f-5" value="" style="shape=partialRectangle;connectable=0;fillColor=none;top=0;left=0;bottom=0;right=0;editable=1;overflow=hidden;strokeColor=#909090;fontColor=#1A1A1A;" parent="vL0QQgbBQVafetT-SU3f-4" vertex="1">
                    <mxGeometry width="30" height="30" as="geometry"/>
                </mxCell>
                <mxCell id="vL0QQgbBQVafetT-SU3f-6" value="name varchar(255) NOT NULL" style="shape=partialRectangle;connectable=0;fillColor=none;top=0;left=0;bottom=0;right=0;align=left;spacingLeft=6;overflow=hidden;strokeColor=#909090;fontColor=#1A1A1A;" parent="vL0QQgbBQVafetT-SU3f-4" vertex="1">
                    <mxGeometry x="30" width="226" height="30" as="geometry"/>
                </mxCell>
                <mxCell id="vL0QQgbBQVafetT-SU3f-7" value="" style="shape=partialRectangle;collapsible=0;dropTarget=0;pointerEvents=0;fillColor=none;top=0;left=0;bottom=0;right=0;points=[[0,0.5],[1,0.5]];portConstraint=eastwest;strokeColor=#909090;fontColor=#1A1A1A;" parent="vL0QQgbBQVafetT-SU3f-0" vertex="1">
                    <mxGeometry y="90" width="256" height="30" as="geometry"/>
                </mxCell>
                <mxCell id="vL0QQgbBQVafetT-SU3f-8" value="" style="shape=partialRectangle;connectable=0;fillColor=none;top=0;left=0;bottom=0;right=0;editable=1;overflow=hidden;strokeColor=#909090;fontColor=#1A1A1A;" parent="vL0QQgbBQVafetT-SU3f-7" vertex="1">
                    <mxGeometry width="30" height="30" as="geometry"/>
                </mxCell>
                <mxCell id="vL0QQgbBQVafetT-SU3f-9" value="description varchar(1000) NOT NULL" style="shape=partialRectangle;connectable=0;fillColor=none;top=0;left=0;bottom=0;right=0;align=left;spacingLeft=6;overflow=hidden;strokeColor=#909090;fontColor=#1A1A1A;" parent="vL0QQgbBQVafetT-SU3f-7" vertex="1">
                    <mxGeometry x="30" width="226" height="30" as="geometry"/>
                </mxCell>
                <mxCell id="vL0QQgbBQVafetT-SU3f-13" value="USER_ROLE" style="shape=table;startSize=30;container=1;collapsible=1;childLayout=tableLayout;fixedRows=1;rowLines=0;fontStyle=1;align=center;resizeLast=1;rounded=0;sketch=0;fontColor=#1A1A1A;strokeColor=#909090;fillColor=#F5AB50;" parent="DoQpAC8117qhnvemwFj_-1" vertex="1">
                    <mxGeometry x="469" y="103" width="180" height="120" as="geometry"/>
                </mxCell>
                <mxCell id="vL0QQgbBQVafetT-SU3f-14" value="" style="shape=partialRectangle;collapsible=0;dropTarget=0;pointerEvents=0;fillColor=none;top=0;left=0;bottom=1;right=0;points=[[0,0.5],[1,0.5]];portConstraint=eastwest;strokeColor=#909090;fontColor=#1A1A1A;" parent="vL0QQgbBQVafetT-SU3f-13" vertex="1">
                    <mxGeometry y="30" width="180" height="30" as="geometry"/>
                </mxCell>
                <mxCell id="vL0QQgbBQVafetT-SU3f-15" value="PK" style="shape=partialRectangle;connectable=0;fillColor=none;top=0;left=0;bottom=0;right=0;fontStyle=1;overflow=hidden;strokeColor=#909090;fontColor=#1A1A1A;" parent="vL0QQgbBQVafetT-SU3f-14" vertex="1">
                    <mxGeometry width="30" height="30" as="geometry"/>
                </mxCell>
                <mxCell id="vL0QQgbBQVafetT-SU3f-16" value="id int NOT NULL" style="shape=partialRectangle;connectable=0;fillColor=none;top=0;left=0;bottom=0;right=0;align=left;spacingLeft=6;fontStyle=5;overflow=hidden;strokeColor=#909090;fontColor=#1A1A1A;" parent="vL0QQgbBQVafetT-SU3f-14" vertex="1">
                    <mxGeometry x="30" width="150" height="30" as="geometry"/>
                </mxCell>
                <mxCell id="vL0QQgbBQVafetT-SU3f-17" value="" style="shape=partialRectangle;collapsible=0;dropTarget=0;pointerEvents=0;fillColor=none;top=0;left=0;bottom=0;right=0;points=[[0,0.5],[1,0.5]];portConstraint=eastwest;strokeColor=#909090;fontColor=#1A1A1A;" parent="vL0QQgbBQVafetT-SU3f-13" vertex="1">
                    <mxGeometry y="60" width="180" height="30" as="geometry"/>
                </mxCell>
                <mxCell id="vL0QQgbBQVafetT-SU3f-18" value="FK" style="shape=partialRectangle;connectable=0;fillColor=none;top=0;left=0;bottom=0;right=0;editable=1;overflow=hidden;strokeColor=#909090;fontColor=#1A1A1A;" parent="vL0QQgbBQVafetT-SU3f-17" vertex="1">
                    <mxGeometry width="30" height="30" as="geometry"/>
                </mxCell>
                <mxCell id="vL0QQgbBQVafetT-SU3f-19" value="user_id int NOT NULL" style="shape=partialRectangle;connectable=0;fillColor=none;top=0;left=0;bottom=0;right=0;align=left;spacingLeft=6;overflow=hidden;strokeColor=#909090;fontColor=#1A1A1A;" parent="vL0QQgbBQVafetT-SU3f-17" vertex="1">
                    <mxGeometry x="30" width="150" height="30" as="geometry"/>
                </mxCell>
                <mxCell id="vL0QQgbBQVafetT-SU3f-20" value="" style="shape=partialRectangle;collapsible=0;dropTarget=0;pointerEvents=0;fillColor=none;top=0;left=0;bottom=0;right=0;points=[[0,0.5],[1,0.5]];portConstraint=eastwest;strokeColor=#909090;fontColor=#1A1A1A;" parent="vL0QQgbBQVafetT-SU3f-13" vertex="1">
                    <mxGeometry y="90" width="180" height="30" as="geometry"/>
                </mxCell>
                <mxCell id="vL0QQgbBQVafetT-SU3f-21" value="FK" style="shape=partialRectangle;connectable=0;fillColor=none;top=0;left=0;bottom=0;right=0;editable=1;overflow=hidden;strokeColor=#909090;fontColor=#1A1A1A;" parent="vL0QQgbBQVafetT-SU3f-20" vertex="1">
                    <mxGeometry width="30" height="30" as="geometry"/>
                </mxCell>
                <mxCell id="vL0QQgbBQVafetT-SU3f-22" value="role_id int NOT NULL" style="shape=partialRectangle;connectable=0;fillColor=none;top=0;left=0;bottom=0;right=0;align=left;spacingLeft=6;overflow=hidden;strokeColor=#909090;fontColor=#1A1A1A;" parent="vL0QQgbBQVafetT-SU3f-20" vertex="1">
                    <mxGeometry x="30" width="150" height="30" as="geometry"/>
                </mxCell>
                <mxCell id="aj_-7nZjfmIuzqR875Qh-1" value="" style="edgeStyle=entityRelationEdgeStyle;fontSize=12;html=1;endArrow=ERzeroToMany;startArrow=ERmandOne;fontColor=#1A1A1A;strokeColor=#182E3E;labelBackgroundColor=#EEEEEE;startFill=0;endFill=1;exitX=0.004;exitY=0.7;exitDx=0;exitDy=0;exitPerimeter=0;" parent="DoQpAC8117qhnvemwFj_-1" source="vL0QQgbBQVafetT-SU3f-1" target="vL0QQgbBQVafetT-SU3f-20" edge="1">
                    <mxGeometry width="100" height="100" relative="1" as="geometry">
                        <mxPoint x="414" y="368" as="sourcePoint"/>
                        <mxPoint x="514" y="268" as="targetPoint"/>
                    </mxGeometry>
                </mxCell>
                <mxCell id="aj_-7nZjfmIuzqR875Qh-2" value="" style="edgeStyle=entityRelationEdgeStyle;fontSize=12;html=1;endArrow=ERoneToMany;startArrow=ERmandOne;fontColor=#1A1A1A;strokeColor=#182E3E;labelBackgroundColor=#EEEEEE;startFill=0;exitX=1;exitY=0.5;exitDx=0;exitDy=0;entryX=0;entryY=0.5;entryDx=0;entryDy=0;" parent="DoQpAC8117qhnvemwFj_-1" source="YnPcKXAepAWKPNKwZ6Nb-1" target="vL0QQgbBQVafetT-SU3f-17" edge="1">
                    <mxGeometry width="100" height="100" relative="1" as="geometry">
                        <mxPoint x="342.9999999999998" y="148" as="sourcePoint"/>
                        <mxPoint x="514" y="268" as="targetPoint"/>
                    </mxGeometry>
                </mxCell>
                <mxCell id="aj_-7nZjfmIuzqR875Qh-3" value="" style="edgeStyle=entityRelationEdgeStyle;fontSize=12;html=1;endArrow=ERmandOne;startArrow=ERzeroToMany;fontColor=#1A1A1A;strokeColor=#182E3E;startFill=1;endFill=0;labelBackgroundColor=#EEEEEE;exitX=0;exitY=0.5;exitDx=0;exitDy=0;" parent="DoQpAC8117qhnvemwFj_-1" source="LIHsp0ykM9RelIvVSaIk-2" target="YnPcKXAepAWKPNKwZ6Nb-1" edge="1">
                    <mxGeometry width="100" height="100" relative="1" as="geometry">
                        <mxPoint x="398" y="382" as="sourcePoint"/>
                        <mxPoint x="50" y="147" as="targetPoint"/>
                    </mxGeometry>
                </mxCell>
                <mxCell id="7tXAYhkLXPC1tsu9IPgw-0" value="PRODUCT" style="shape=table;startSize=27;container=1;collapsible=1;childLayout=tableLayout;fixedRows=1;rowLines=0;fontStyle=1;align=center;resizeLast=1;rounded=0;sketch=0;fontColor=#1A1A1A;strokeColor=#909090;fillColor=#F5AB50;" parent="DoQpAC8117qhnvemwFj_-1" vertex="1">
                    <mxGeometry x="781" y="336" width="256" height="130" as="geometry"/>
                </mxCell>
                <mxCell id="7tXAYhkLXPC1tsu9IPgw-1" value="" style="shape=partialRectangle;collapsible=0;dropTarget=0;pointerEvents=0;fillColor=none;top=0;left=0;bottom=1;right=0;points=[[0,0.5],[1,0.5]];portConstraint=eastwest;strokeColor=#909090;fontColor=#1A1A1A;" parent="7tXAYhkLXPC1tsu9IPgw-0" vertex="1">
                    <mxGeometry y="27" width="256" height="30" as="geometry"/>
                </mxCell>
                <mxCell id="7tXAYhkLXPC1tsu9IPgw-2" value="PK" style="shape=partialRectangle;connectable=0;fillColor=none;top=0;left=0;bottom=0;right=0;fontStyle=1;overflow=hidden;strokeColor=#909090;fontColor=#1A1A1A;" parent="7tXAYhkLXPC1tsu9IPgw-1" vertex="1">
                    <mxGeometry width="30" height="30" as="geometry"/>
                </mxCell>
                <mxCell id="7tXAYhkLXPC1tsu9IPgw-3" value="id int NOT NULL" style="shape=partialRectangle;connectable=0;fillColor=none;top=0;left=0;bottom=0;right=0;align=left;spacingLeft=6;fontStyle=5;overflow=hidden;strokeColor=#909090;fontColor=#1A1A1A;" parent="7tXAYhkLXPC1tsu9IPgw-1" vertex="1">
                    <mxGeometry x="30" width="226" height="30" as="geometry"/>
                </mxCell>
                <mxCell id="7tXAYhkLXPC1tsu9IPgw-4" value="" style="shape=partialRectangle;collapsible=0;dropTarget=0;pointerEvents=0;fillColor=none;top=0;left=0;bottom=0;right=0;points=[[0,0.5],[1,0.5]];portConstraint=eastwest;strokeColor=#909090;fontColor=#1A1A1A;" parent="7tXAYhkLXPC1tsu9IPgw-0" vertex="1">
                    <mxGeometry y="57" width="256" height="30" as="geometry"/>
                </mxCell>
                <mxCell id="7tXAYhkLXPC1tsu9IPgw-5" value="" style="shape=partialRectangle;connectable=0;fillColor=none;top=0;left=0;bottom=0;right=0;editable=1;overflow=hidden;strokeColor=#909090;fontColor=#1A1A1A;" parent="7tXAYhkLXPC1tsu9IPgw-4" vertex="1">
                    <mxGeometry width="30" height="30" as="geometry"/>
                </mxCell>
                <mxCell id="7tXAYhkLXPC1tsu9IPgw-6" value="name varchar(255) NOT NULL" style="shape=partialRectangle;connectable=0;fillColor=none;top=0;left=0;bottom=0;right=0;align=left;spacingLeft=6;overflow=hidden;strokeColor=#909090;fontColor=#1A1A1A;" parent="7tXAYhkLXPC1tsu9IPgw-4" vertex="1">
                    <mxGeometry x="30" width="226" height="30" as="geometry"/>
                </mxCell>
                <mxCell id="Y38g-nWLwRBDIC2vSQzy-0" value="" style="shape=partialRectangle;collapsible=0;dropTarget=0;pointerEvents=0;fillColor=none;top=0;left=0;bottom=0;right=0;points=[[0,0.5],[1,0.5]];portConstraint=eastwest;strokeColor=#909090;fontColor=#1A1A1A;" parent="7tXAYhkLXPC1tsu9IPgw-0" vertex="1">
                    <mxGeometry y="87" width="256" height="30" as="geometry"/>
                </mxCell>
                <mxCell id="Y38g-nWLwRBDIC2vSQzy-1" value="" style="shape=partialRectangle;connectable=0;fillColor=none;top=0;left=0;bottom=0;right=0;editable=1;overflow=hidden;strokeColor=#909090;fontColor=#1A1A1A;" parent="Y38g-nWLwRBDIC2vSQzy-0" vertex="1">
                    <mxGeometry width="30" height="30" as="geometry"/>
                </mxCell>
                <mxCell id="Y38g-nWLwRBDIC2vSQzy-2" value="amoun int NOT NULL" style="shape=partialRectangle;connectable=0;fillColor=none;top=0;left=0;bottom=0;right=0;align=left;spacingLeft=6;overflow=hidden;strokeColor=#909090;fontColor=#1A1A1A;" parent="Y38g-nWLwRBDIC2vSQzy-0" vertex="1">
                    <mxGeometry x="30" width="226" height="30" as="geometry"/>
                </mxCell>
                <mxCell id="BH0hzeqteSSwRbljnaUI-0" value="MODIFICATION_RECORD" style="shape=table;startSize=27;container=1;collapsible=1;childLayout=tableLayout;fixedRows=1;rowLines=0;fontStyle=1;align=center;resizeLast=1;rounded=0;sketch=0;fontColor=#1A1A1A;strokeColor=#909090;fillColor=#F5AB50;" vertex="1" parent="DoQpAC8117qhnvemwFj_-1">
                    <mxGeometry x="149" y="538" width="256" height="160" as="geometry"/>
                </mxCell>
                <mxCell id="BH0hzeqteSSwRbljnaUI-1" value="" style="shape=partialRectangle;collapsible=0;dropTarget=0;pointerEvents=0;fillColor=none;top=0;left=0;bottom=1;right=0;points=[[0,0.5],[1,0.5]];portConstraint=eastwest;strokeColor=#909090;fontColor=#1A1A1A;" vertex="1" parent="BH0hzeqteSSwRbljnaUI-0">
                    <mxGeometry y="27" width="256" height="30" as="geometry"/>
                </mxCell>
                <mxCell id="BH0hzeqteSSwRbljnaUI-2" value="PK" style="shape=partialRectangle;connectable=0;fillColor=none;top=0;left=0;bottom=0;right=0;fontStyle=1;overflow=hidden;strokeColor=#909090;fontColor=#1A1A1A;" vertex="1" parent="BH0hzeqteSSwRbljnaUI-1">
                    <mxGeometry width="30" height="30" as="geometry"/>
                </mxCell>
                <mxCell id="BH0hzeqteSSwRbljnaUI-3" value="id int NOT NULL" style="shape=partialRectangle;connectable=0;fillColor=none;top=0;left=0;bottom=0;right=0;align=left;spacingLeft=6;fontStyle=5;overflow=hidden;strokeColor=#909090;fontColor=#1A1A1A;" vertex="1" parent="BH0hzeqteSSwRbljnaUI-1">
                    <mxGeometry x="30" width="226" height="30" as="geometry"/>
                </mxCell>
                <mxCell id="BH0hzeqteSSwRbljnaUI-4" value="" style="shape=partialRectangle;collapsible=0;dropTarget=0;pointerEvents=0;fillColor=none;top=0;left=0;bottom=0;right=0;points=[[0,0.5],[1,0.5]];portConstraint=eastwest;strokeColor=#909090;fontColor=#1A1A1A;" vertex="1" parent="BH0hzeqteSSwRbljnaUI-0">
                    <mxGeometry y="57" width="256" height="30" as="geometry"/>
                </mxCell>
                <mxCell id="BH0hzeqteSSwRbljnaUI-5" value="" style="shape=partialRectangle;connectable=0;fillColor=none;top=0;left=0;bottom=0;right=0;editable=1;overflow=hidden;strokeColor=#909090;fontColor=#1A1A1A;" vertex="1" parent="BH0hzeqteSSwRbljnaUI-4">
                    <mxGeometry width="30" height="30" as="geometry"/>
                </mxCell>
                <mxCell id="BH0hzeqteSSwRbljnaUI-6" value="mer_id" style="shape=partialRectangle;connectable=0;fillColor=none;top=0;left=0;bottom=0;right=0;align=left;spacingLeft=6;overflow=hidden;strokeColor=#909090;fontColor=#1A1A1A;" vertex="1" parent="BH0hzeqteSSwRbljnaUI-4">
                    <mxGeometry x="30" width="226" height="30" as="geometry"/>
                </mxCell>
                <mxCell id="BH0hzeqteSSwRbljnaUI-10" value="" style="shape=partialRectangle;collapsible=0;dropTarget=0;pointerEvents=0;fillColor=none;top=0;left=0;bottom=0;right=0;points=[[0,0.5],[1,0.5]];portConstraint=eastwest;strokeColor=#909090;fontColor=#1A1A1A;" vertex="1" parent="BH0hzeqteSSwRbljnaUI-0">
                    <mxGeometry y="87" width="256" height="30" as="geometry"/>
                </mxCell>
                <mxCell id="BH0hzeqteSSwRbljnaUI-11" value="" style="shape=partialRectangle;connectable=0;fillColor=none;top=0;left=0;bottom=0;right=0;editable=1;overflow=hidden;strokeColor=#909090;fontColor=#1A1A1A;" vertex="1" parent="BH0hzeqteSSwRbljnaUI-10">
                    <mxGeometry width="30" height="30" as="geometry"/>
                </mxCell>
                <mxCell id="BH0hzeqteSSwRbljnaUI-12" value="userId" style="shape=partialRectangle;connectable=0;fillColor=none;top=0;left=0;bottom=0;right=0;align=left;spacingLeft=6;overflow=hidden;strokeColor=#909090;fontColor=#1A1A1A;" vertex="1" parent="BH0hzeqteSSwRbljnaUI-10">
                    <mxGeometry x="30" width="226" height="30" as="geometry"/>
                </mxCell>
                <mxCell id="BH0hzeqteSSwRbljnaUI-13" value="" style="shape=partialRectangle;collapsible=0;dropTarget=0;pointerEvents=0;fillColor=none;top=0;left=0;bottom=0;right=0;points=[[0,0.5],[1,0.5]];portConstraint=eastwest;strokeColor=#909090;fontColor=#1A1A1A;" vertex="1" parent="BH0hzeqteSSwRbljnaUI-0">
                    <mxGeometry y="117" width="256" height="30" as="geometry"/>
                </mxCell>
                <mxCell id="BH0hzeqteSSwRbljnaUI-14" value="" style="shape=partialRectangle;connectable=0;fillColor=none;top=0;left=0;bottom=0;right=0;editable=1;overflow=hidden;strokeColor=#909090;fontColor=#1A1A1A;" vertex="1" parent="BH0hzeqteSSwRbljnaUI-13">
                    <mxGeometry width="30" height="30" as="geometry"/>
                </mxCell>
                <mxCell id="BH0hzeqteSSwRbljnaUI-15" value="userId" style="shape=partialRectangle;connectable=0;fillColor=none;top=0;left=0;bottom=0;right=0;align=left;spacingLeft=6;overflow=hidden;strokeColor=#909090;fontColor=#1A1A1A;" vertex="1" parent="BH0hzeqteSSwRbljnaUI-13">
                    <mxGeometry x="30" width="226" height="30" as="geometry"/>
                </mxCell>
            </root>
        </mxGraphModel>
    </diagram>
</mxfile>